<mxfile host="drawio-plugin" modified="2021-07-13T12:54:28.557Z" agent="5.0 (Windows NT 6.2; Win64; x64) AppleWebKit/537.36 (KHTML, like Gecko) Chrome/87.0.4280.141 Safari/537.36" etag="UmZw53S67AUu9c0X0Vmg" version="14.7.4" type="embed"><diagram id="23iRSUPoRavnBvh4doch" name="er-diagram"><mxGraphModel dx="678" dy="528" grid="1" gridSize="10" guides="1" tooltips="1" connect="1" arrows="1" fold="1" page="1" pageScale="1" pageWidth="827" pageHeight="1169" math="0" shadow="0"><root><mxCell id="0"/><mxCell id="1" parent="0"/><mxCell id="2" value="Sensor" style="swimlane;childLayout=stackLayout;horizontal=1;startSize=30;horizontalStack=0;rounded=1;fontSize=14;fontStyle=0;strokeWidth=2;resizeParent=0;resizeLast=1;shadow=0;dashed=0;align=center;" parent="1" vertex="1"><mxGeometry x="140" y="175" width="160" height="100" as="geometry"/></mxCell><mxCell id="3" value="+UID&#10;+Name&#10;+LastState&#10;+LastStateDate" style="align=left;strokeColor=none;fillColor=none;spacingLeft=4;fontSize=12;verticalAlign=top;resizable=0;rotatable=0;part=1;" parent="2" vertex="1"><mxGeometry y="30" width="160" height="70" as="geometry"/></mxCell><mxCell id="4" value="Section" style="swimlane;childLayout=stackLayout;horizontal=1;startSize=30;horizontalStack=0;rounded=1;fontSize=14;fontStyle=0;strokeWidth=2;resizeParent=0;resizeLast=1;shadow=0;dashed=0;align=center;" parent="1" vertex="1"><mxGeometry x="450" y="175" width="160" height="100" as="geometry"/></mxCell><mxCell id="5" value="+UID&#10;+Name&#10;+Latitude&#10;+Longtitude" style="align=left;strokeColor=none;fillColor=none;spacingLeft=4;fontSize=12;verticalAlign=top;resizable=0;rotatable=0;part=1;" parent="4" vertex="1"><mxGeometry y="30" width="160" height="70" as="geometry"/></mxCell><mxCell id="7" value="" style="edgeStyle=entityRelationEdgeStyle;fontSize=12;html=1;endArrow=ERzeroToOne;endFill=1;exitX=1;exitY=0.25;exitDx=0;exitDy=0;entryX=0;entryY=0.25;entryDx=0;entryDy=0;" parent="1" source="3" target="5" edge="1"><mxGeometry width="100" height="100" relative="1" as="geometry"><mxPoint x="290" y="360" as="sourcePoint"/><mxPoint x="380" y="360" as="targetPoint"/></mxGeometry></mxCell><mxCell id="8" value="StateTimeSeries" style="swimlane;childLayout=stackLayout;horizontal=1;startSize=30;horizontalStack=0;rounded=1;fontSize=14;fontStyle=0;strokeWidth=2;resizeParent=0;resizeLast=1;shadow=0;dashed=0;align=center;" parent="1" vertex="1"><mxGeometry x="140" y="400" width="160" height="70" as="geometry"/></mxCell><mxCell id="9" value="+State&#10;+StateDate" style="align=left;strokeColor=none;fillColor=none;spacingLeft=4;fontSize=12;verticalAlign=top;resizable=0;rotatable=0;part=1;" parent="8" vertex="1"><mxGeometry y="30" width="160" height="40" as="geometry"/></mxCell><mxCell id="10" value="" style="edgeStyle=entityRelationEdgeStyle;fontSize=12;html=1;endArrow=ERzeroToMany;endFill=1;exitX=1;exitY=0.75;exitDx=0;exitDy=0;" parent="1" source="3" target="8" edge="1"><mxGeometry width="100" height="100" relative="1" as="geometry"><mxPoint x="310" y="250" as="sourcePoint"/><mxPoint x="520" y="340" as="targetPoint"/></mxGeometry></mxCell><mxCell id="26" value="FailureReport" style="swimlane;childLayout=stackLayout;horizontal=1;startSize=30;horizontalStack=0;rounded=1;fontSize=14;fontStyle=0;strokeWidth=2;resizeParent=0;resizeLast=1;shadow=0;dashed=0;align=center;" parent="1" vertex="1"><mxGeometry x="450" y="397.5" width="160" height="102.5" as="geometry"/></mxCell><mxCell id="27" value="+UID&#10;+CreationTime&#10;+InWorkDate&#10;+FinishDate" style="align=left;strokeColor=none;fillColor=none;spacingLeft=4;fontSize=12;verticalAlign=top;resizable=0;rotatable=0;part=1;" parent="26" vertex="1"><mxGeometry y="30" width="160" height="72.5" as="geometry"/></mxCell><mxCell id="29" value="" style="edgeStyle=entityRelationEdgeStyle;fontSize=12;html=1;endArrow=ERzeroToMany;endFill=1;startArrow=ERzeroToMany;exitX=1;exitY=0.5;exitDx=0;exitDy=0;" parent="1" source="3" target="26" edge="1"><mxGeometry width="100" height="100" relative="1" as="geometry"><mxPoint x="370" y="220" as="sourcePoint"/><mxPoint x="420" y="520" as="targetPoint"/></mxGeometry></mxCell></root></mxGraphModel></diagram></mxfile>